<svg width="238" height="76" viewBox="0 0 238 76" fill="none" xmlns="http://www.w3.org/2000/svg">
<g clip-path="url(#clip0_1064_317)">
<path d="M75.4596 37.7388C75.4529 47.1022 71.9088 56.1174 65.5372 62.9786C59.1656 69.8398 50.4369 74.0403 41.0996 74.7388L42.1696 68.2988C48.2249 67.7279 53.9747 65.373 58.6907 61.5322C63.4068 57.6914 66.877 52.5375 68.662 46.7231C70.447 40.9088 70.4665 34.6955 68.7179 28.8701C66.9694 23.0446 63.5315 17.8691 58.8396 13.9988L59.9096 7.54883C64.717 10.9804 68.6359 15.5099 71.3405 20.7608C74.0451 26.0117 75.4573 31.8323 75.4596 37.7388Z" fill="white"/>
<path d="M51.8999 3.64849L50.1299 14.3585C49.7499 14.1485 49.3699 13.9485 48.9899 13.7785L49.6899 9.49849C45.6516 7.74805 41.2845 6.88491 36.8839 6.96743C32.4834 7.04995 28.1518 8.07619 24.1819 9.97679C20.2121 11.8774 16.6965 14.6081 13.8728 17.9843C11.0491 21.3605 8.98303 25.3035 7.81432 29.5468C6.6456 33.7902 6.40144 38.235 7.09834 42.5809C7.79523 46.9267 9.41694 51.0723 11.8539 54.7375C14.2908 58.4026 17.4861 61.5019 21.2239 63.8259C24.9617 66.1499 29.1548 67.6445 33.5199 68.2085L32.5199 74.5685C23.1271 73.4088 14.5314 68.7072 8.4882 61.4237C2.44502 54.1403 -0.589704 44.8246 0.00382672 35.3792C0.597357 25.9337 4.77436 17.0712 11.6818 10.6015C18.5892 4.13188 27.7058 0.543227 37.1699 0.568492C42.2398 0.567254 47.2551 1.61594 51.8999 3.64849Z" fill="white"/>
<path d="M61.4796 37.7194C61.4776 42.9379 59.6324 47.9879 56.2695 51.9784C52.9066 55.9688 48.2423 58.6431 43.0996 59.5294L42.8596 60.9994C41.9489 61.1861 41.0269 61.3131 40.0996 61.3794L41.2196 54.5494C41.4047 54.5266 41.5883 54.4932 41.7696 54.4494C43.1541 54.1733 44.4982 53.723 45.7696 53.1094C46.02 52.9968 46.2638 52.87 46.4996 52.7294C47.2285 52.3406 47.9242 51.8924 48.5796 51.3894C48.8672 51.187 49.1442 50.9701 49.4096 50.7394C50.8379 49.4972 52.0509 48.0273 52.9996 46.3894C53.1342 46.1793 53.2577 45.9623 53.3696 45.7394C53.5363 45.4461 53.6832 45.1421 53.8096 44.8294C53.8619 44.7649 53.8994 44.6898 53.9196 44.6094C54.0596 44.3094 54.1796 44.0094 54.2896 43.7094C54.6424 42.7678 54.9134 41.7975 55.0996 40.8094C55.3009 39.7782 55.4013 38.73 55.3996 37.6794C55.4185 33.3537 53.8002 29.1811 50.8696 25.9994L52.1196 18.3594C53.4342 19.2974 54.6504 20.3662 55.7496 21.5494L55.5696 22.6194C59.3834 26.721 61.496 32.1187 61.4796 37.7194Z" fill="white"/>
<path d="M47.5101 17.4299L46.6301 22.7299C44.0906 21.3117 41.2288 20.5712 38.3201 20.5799C33.784 20.5799 29.4335 22.3812 26.2251 25.5877C23.0166 28.7943 21.2128 33.1438 21.2101 37.6799C21.2067 39.4889 21.5006 41.2862 22.0801 42.9999C22.1701 43.2899 22.2701 43.5599 22.3701 43.8299C22.4701 44.0999 22.5901 44.3699 22.7101 44.6399C22.8317 44.9416 22.972 45.2355 23.1301 45.5199C23.2301 45.6899 23.3101 45.8599 23.4001 46.0199C23.4901 46.1799 23.6601 46.4599 23.7901 46.6799C23.9201 46.8999 24.0601 47.1099 24.2101 47.3299C24.9592 48.429 25.8352 49.4359 26.8201 50.3299C27.0204 50.5209 27.2307 50.7011 27.4501 50.8699C27.7689 51.1543 28.1027 51.4213 28.4501 51.6699L28.8501 51.9399C29.0301 52.0699 29.2301 52.1899 29.4201 52.2999L30.1201 52.7099C30.3701 52.8399 30.6101 52.9799 30.8701 53.0899C31.3701 53.3299 31.8701 53.5499 32.3901 53.7399C33.1866 54.0258 34.0019 54.2563 34.8301 54.4299C35.1099 54.496 35.3939 54.5428 35.6801 54.5699C35.91 54.626 36.1441 54.6628 36.3801 54.6799L35.5701 59.6799C32.4424 59.2408 29.445 58.1374 26.7792 56.4437C24.1134 54.75 21.841 52.5053 20.1147 49.8604C18.3884 47.2156 17.2483 44.2319 16.7709 41.1099C16.2935 37.9878 16.4899 34.7997 17.3469 31.7599C18.2039 28.72 19.7016 25.8988 21.7395 23.4859C23.7773 21.0729 26.3081 19.1241 29.1616 17.7705C32.0152 16.4168 35.1254 15.6896 38.2833 15.6377C41.4412 15.5859 44.5737 16.2106 47.4701 17.4699L47.5101 17.4299Z" fill="white"/>
<path d="M41.0002 26.5885L37.1302 49.1185C35.6486 48.8669 34.2312 48.3255 32.9591 47.5254C31.687 46.7254 30.5851 45.6823 29.7166 44.4559C28.848 43.2295 28.2298 41.8439 27.8974 40.3783C27.565 38.9128 27.5248 37.396 27.7792 35.9149C28.0336 34.4338 28.5776 33.0174 29.3801 31.7468C30.1825 30.4762 31.2276 29.3762 32.4556 28.51C33.6836 27.6437 35.0704 27.0281 36.5366 26.6984C38.0027 26.3687 39.5195 26.3314 41.0002 26.5885Z" fill="white"/>
<path d="M49.8795 40.1193C49.9068 40.8984 49.7024 41.6679 49.2921 42.3307C48.8819 42.9935 48.2843 43.5198 47.5749 43.8428C46.8655 44.1659 46.0762 44.2712 45.3069 44.1456C44.5376 44.02 43.8229 43.669 43.2531 43.137C42.6834 42.605 42.2842 41.916 42.1061 41.1572C41.9281 40.3983 41.9791 39.6036 42.2528 38.8738C42.5265 38.1439 43.0105 37.5116 43.6436 37.0569C44.2767 36.6022 45.0305 36.3455 45.8095 36.3193C46.3269 36.2993 46.843 36.3819 47.3282 36.5625C47.8134 36.743 48.2581 37.0178 48.6365 37.3711C49.0149 37.7244 49.3196 38.1492 49.5329 38.6209C49.7463 39.0926 49.8641 39.6019 49.8795 40.1193Z" fill="white"/>
<path d="M41.0002 26.5885L37.1302 49.1185C35.6486 48.8669 34.2312 48.3255 32.9591 47.5254C31.687 46.7254 30.5851 45.6823 29.7166 44.4559C28.848 43.2295 28.2298 41.8439 27.8974 40.3783C27.565 38.9128 27.5248 37.396 27.7792 35.9149C28.0336 34.4338 28.5776 33.0174 29.3801 31.7468C30.1825 30.4762 31.2276 29.3762 32.4556 28.51C33.6836 27.6437 35.0704 27.0281 36.5366 26.6984C38.0027 26.3687 39.5195 26.3314 41.0002 26.5885Z" fill="white"/>
<path d="M49.8795 40.1193C49.9068 40.8984 49.7024 41.6679 49.2921 42.3307C48.8819 42.9935 48.2843 43.5198 47.5749 43.8428C46.8655 44.1659 46.0762 44.2712 45.3069 44.1456C44.5376 44.02 43.8229 43.669 43.2531 43.137C42.6834 42.605 42.2842 41.916 42.1061 41.1572C41.9281 40.3983 41.9791 39.6036 42.2528 38.8738C42.5265 38.1439 43.0105 37.5116 43.6436 37.0569C44.2767 36.6022 45.0305 36.3455 45.8095 36.3193C46.3269 36.2993 46.843 36.3819 47.3282 36.5625C47.8134 36.743 48.2581 37.0178 48.6365 37.3711C49.0149 37.7244 49.3196 38.1492 49.5329 38.6209C49.7463 39.0926 49.8641 39.6019 49.8795 40.1193Z" fill="white"/>
<path d="M124.19 13.8597V13.3697C124.249 11.5363 123.818 9.72028 122.94 8.1097C122.1 6.6697 120.64 5.9497 118.54 5.9497C117.556 5.92213 116.588 6.19432 115.763 6.73014C114.937 7.26596 114.295 8.04007 113.92 8.9497C112.92 10.9497 112.44 13.7597 112.44 17.4797C112.44 21.1997 113.05 23.9797 114.26 25.8097C114.821 26.6936 115.606 27.4135 116.535 27.8965C117.464 28.3794 118.504 28.6082 119.55 28.5597C121.863 28.5597 124.606 27.3964 127.78 25.0697C128.625 25.6648 129.374 26.3866 130 27.2097C130.622 27.9794 131.066 28.8777 131.3 29.8397C129.628 31.4447 127.658 32.7053 125.5 33.5497C123.29 34.511 120.91 35.021 118.5 35.0497C116.532 35.1078 114.573 34.7677 112.74 34.0497C111.289 33.444 109.984 32.5373 108.91 31.3897C107.86 30.2081 107.022 28.8551 106.43 27.3897C105.159 24.2889 104.54 20.96 104.61 17.6097C104.61 11.743 105.943 7.33637 108.61 4.3897C109.839 2.98411 111.359 1.86323 113.066 1.10508C114.772 0.346927 116.623 -0.0302828 118.49 -0.000295546C122.423 -0.000295546 125.546 0.966371 127.86 2.8997C128.953 3.75818 129.834 4.85694 130.434 6.11077C131.034 7.3646 131.337 8.7398 131.32 10.1297C131.32 12.8797 129.9 14.2597 127.04 14.2597C126.076 14.254 125.118 14.1195 124.19 13.8597Z" fill="white"/>
<path d="M155 13.9092L154.95 10.2792V0.73922C157.441 0.339174 159.979 0.339174 162.47 0.73922V34.3192C159.978 34.7059 157.442 34.7059 154.95 34.3192V23.7492L155 20.1092L152.49 20.1592H146.44L143.94 20.1092L143.99 23.7492V34.3192C142.738 34.5323 141.47 34.6294 140.2 34.6092C138.947 34.6315 137.695 34.5344 136.46 34.3192V0.73922C137.694 0.514956 138.946 0.414457 140.2 0.43922C141.47 0.416609 142.739 0.517078 143.99 0.73922V10.2792L143.94 13.9092L146.44 13.8592H152.49L155 13.9092Z" fill="white"/>
<path d="M193.899 11.0589C193.952 13.1049 193.322 15.1102 192.109 16.7589C191.065 18.2483 189.604 19.3963 187.909 20.0589C189.583 20.6522 190.826 22.1422 191.639 24.5289L193.219 28.9089C193.659 30.3134 194.496 31.5604 195.629 32.4989C195.064 33.2023 194.337 33.7582 193.509 34.1189C192.535 34.5542 191.477 34.7726 190.409 34.7589C189.922 34.786 189.435 34.7111 188.979 34.5389C188.522 34.3667 188.107 34.101 187.759 33.7589C186.951 32.7531 186.35 31.5976 185.989 30.3589L184.119 24.9989C183.859 24.0954 183.358 23.2796 182.669 22.6389C181.856 22.0316 180.852 21.7371 179.839 21.8089H177.529V34.3189C176.298 34.531 175.049 34.6281 173.799 34.6089C172.563 34.6301 171.327 34.533 170.109 34.3189V0.998852L170.449 0.658852C175.963 0.532185 179.833 0.465518 182.059 0.458852C185.153 0.308386 188.199 1.2578 190.659 3.13885C192.819 4.91885 193.899 7.55885 193.899 11.0589ZM177.529 6.05885V16.0589C179.699 15.9889 181.009 15.9589 181.469 15.9589C184.649 15.9589 186.239 14.3189 186.239 11.0389C186.239 7.75885 184.649 6.12885 181.469 6.12885C179.829 6.14885 178.519 6.12885 177.529 6.09885V6.05885Z" fill="white"/>
<path d="M200.35 34.3195V0.739487C202.84 0.339442 205.379 0.339442 207.87 0.739487V34.3195C206.628 34.5319 205.369 34.629 204.11 34.6095C202.85 34.6299 201.591 34.5328 200.35 34.3195Z" fill="white"/>
<path d="M212.689 31.3693C212.803 30.2681 213.143 29.2022 213.689 28.2393C214.19 27.2916 214.869 26.4495 215.689 25.7593C219.229 27.9193 222.523 28.9993 225.569 28.9993C226.73 29.0806 227.879 28.7238 228.789 27.9993C229.138 27.6981 229.417 27.3248 229.607 26.9053C229.796 26.4857 229.893 26.0299 229.889 25.5693C229.889 23.9293 228.793 22.616 226.599 21.6293L220.799 19.1693C216.133 17.1693 213.799 14.1693 213.799 10.1693C213.765 8.76951 214.053 7.38054 214.641 6.10962C215.229 4.83871 216.101 3.71983 217.189 2.83935C219.73 0.845696 222.905 -0.162905 226.129 -0.000652438C229.949 0.031208 233.704 0.992191 237.069 2.79935C236.961 4.94143 236.046 6.96324 234.509 8.45935C231.775 7.00936 228.752 6.18613 225.659 6.04935C224.541 5.98641 223.439 6.34299 222.569 7.04935C222.238 7.30952 221.968 7.63999 221.78 8.01695C221.591 8.39391 221.489 8.80799 221.479 9.22935C221.479 10.5627 222.496 11.6627 224.529 12.5293L230.429 14.9893C232.567 15.8388 234.456 17.2147 235.919 18.9893C237.191 20.5888 237.876 22.576 237.859 24.6193C237.907 26.0491 237.633 27.4712 237.059 28.7813C236.484 30.0913 235.623 31.2559 234.539 32.1893C232.333 34.1293 229.163 35.096 225.029 35.0893C222.869 35.0678 220.723 34.7309 218.659 34.0893C216.55 33.4716 214.54 32.5557 212.689 31.3693Z" fill="white"/>
<path d="M109.84 71.8586C106.327 68.9386 104.573 64.1286 104.58 57.4286C104.587 50.7286 106.34 45.9186 109.84 42.9986C112.501 40.9869 115.745 39.8984 119.08 39.8984C122.415 39.8984 125.66 40.9869 128.32 42.9986C131.833 45.9186 133.587 50.7286 133.58 57.4286C133.573 64.1286 131.82 68.9386 128.32 71.8586C125.657 73.864 122.414 74.9486 119.08 74.9486C115.746 74.9486 112.503 73.864 109.84 71.8586ZM119.06 45.6986C114.607 45.6986 112.383 49.6086 112.39 57.4286C112.397 65.2486 114.62 69.1553 119.06 69.1486C123.5 69.1486 125.72 65.2419 125.72 57.4286C125.72 49.6153 123.5 45.7053 119.06 45.6986Z" fill="white"/>
<path d="M140.28 74.1186L142.89 40.6886C144.524 40.4275 146.177 40.3104 147.83 40.3386C149.467 40.3084 151.104 40.4255 152.72 40.6886L155.87 53.1686C156.75 56.8086 157.38 59.7486 157.74 61.9686H158C158.36 59.7486 159 56.8086 159.87 53.1686L163.02 40.6886C164.643 40.428 166.286 40.3109 167.93 40.3386C169.561 40.3087 171.191 40.4258 172.8 40.6886L175.41 74.1186C174.253 74.4065 173.062 74.5377 171.87 74.5086C170.685 74.5304 169.501 74.4467 168.33 74.2586L167.57 59.9986C167.31 55.4786 167.18 51.7586 167.18 48.8386H166.83L161.72 69.2386C160.46 69.4341 159.185 69.5177 157.91 69.4886C156.602 69.5147 155.294 69.431 154 69.2386L148.94 48.8386H148.59C148.53 52.8386 148.4 56.5586 148.2 59.9986L147.41 74.2486C146.24 74.4367 145.055 74.5204 143.87 74.4986C142.662 74.5281 141.455 74.4004 140.28 74.1186Z" fill="white"/>
<path d="M189.56 64.7302L189.51 68.1202C190.96 68.0502 192.15 68.0202 193.1 68.0202H204.71C204.728 68.9094 204.678 69.7987 204.56 70.6802C204.1 73.1002 202.493 74.3102 199.74 74.3102H186.47C185.887 74.3435 185.303 74.2559 184.756 74.0529C184.209 73.8498 183.71 73.5356 183.29 73.1302C182.891 72.6946 182.583 72.1834 182.386 71.6268C182.188 71.0703 182.105 70.4797 182.14 69.8902V41.0002L182.48 40.6602H203.48C203.657 41.5995 203.737 42.5545 203.72 43.5102C203.719 44.6819 203.519 45.8451 203.13 46.9502H189.51L189.56 50.4402V54.3302C190.41 54.3302 191.51 54.2802 192.86 54.2802H200.58C200.899 55.2472 201.048 56.2622 201.02 57.2802C201.043 58.3372 200.895 59.391 200.58 60.4002H189.58L189.56 64.7302Z" fill="white"/>
<path d="M237.51 40.3385L237.86 40.6385V74.0685C236.415 74.3809 234.939 74.5285 233.46 74.5085C231.955 74.5192 230.451 74.4223 228.96 74.2185L220.8 56.2185C219.42 52.9485 218.49 50.6285 218 49.2885L217.8 49.3385C218.187 54.0052 218.383 58.7752 218.39 63.6485V74.2185C217.229 74.4256 216.05 74.5227 214.87 74.5085C213.71 74.5243 212.551 74.4272 211.41 74.2185V40.7785C212.821 40.4619 214.264 40.3141 215.71 40.3385C217.216 40.3258 218.72 40.4261 220.21 40.6385L228.21 58.5785L231.31 66.0085L231.51 65.9585C231.11 61.4319 230.913 56.6952 230.92 51.7485V44.8685C230.804 43.621 231.161 42.3755 231.92 41.3785C232.358 41.0031 232.867 40.7208 233.417 40.5488C233.967 40.3769 234.547 40.3189 235.12 40.3785L237.51 40.3385Z" fill="white"/>
<path d="M90.5195 0.439453H89.5195V75.4095H90.5195V0.439453Z" fill="white"/>
</g>
<defs>
<clipPath id="clip0_1064_317">
<rect width="237.86" height="75.41" fill="white"/>
</clipPath>
</defs>
</svg>
